<svg t="1646467821367" class="icon" viewBox="0 0 1268 1024" version="1.1" xmlns="http://www.w3.org/2000/svg" p-id="2235" width="200" height="200"><path d="M753.11488203 500.81087696a198.22005315 198.22005315 0 0 0 76.27919791-156.18121723c0-109.5432805-89.11198188-198.66702487-198.66702486-198.66702487s-198.66702487 89.11198188-198.66702411 198.66702487c0 63.37583971 29.93532123 119.7648099 76.27919789 156.18121723-122.09376615 48.79045709-208.72388089 168.07300854-208.72388167 307.36341113v66.22234188a33.08764595 33.08764595 0 0 0 33.11117095 33.11117094h596.00107384a33.08764595 33.08764595 0 0 0 33.11117095-33.09940844v-66.22234188c0-139.33745255-86.59482726-258.58471731-208.7238809-307.37517363z m-122.32901449-288.61413771a132.44468299 132.44468299 0 1 1-132.44468299 132.44468299 132.57406966 132.57406966 0 0 1 132.44468299-132.44468299z m264.83055428 629.08871978h-529.77873275v-33.11117094c0-146.05378624 118.80029303-264.87760425 264.92465347-264.87760348s264.85407927 118.80029303 264.85407928 264.87760348zM433.22450871 475.1923582c1.09390354-2.42305545 1.09390354-4.99902254 1.64673695-7.50441468a35.28721553 35.28721553 0 0 0 1.01156684-4.5755758 38.58068942 38.58068942 0 0 0-0.30582257-9.26877503c-0.1529109-1.64673695 0.23524836-3.21113643-0.15291164-4.84611087-0.23524836-0.94099265-0.90570517-1.61144946-1.17624024-2.55244211a39.58049378 39.58049378 0 0 0-2.35248125-5.08135924 38.93356118 38.93356118 0 0 0-5.88120272-9.33935c-0.35287252-0.39992174-0.788081-0.65869433-1.17624023-1.05861605a38.38072854 38.38072854 0 0 0-19.54911767-11.00961116c-36.36935735-17.06724976-64.36388157-60.08236582-64.36388156-107.48485932a119.69423571 119.69423571 0 0 1 91.89967235-116.81244681 40.07216252 40.07216252 0 0 0-18.81984839-77.90240986 199.96088928 199.96088928 0 0 0-101.15668489 329.04152419C208.63314251 500.81087696 140.66996527 608.81328142 140.66996527 731.02467252v61.95258861a40.04510885 40.04510885 0 0 0 80.0902177 0v-61.9525886a239.02383714 239.02383714 0 0 1 181.30571429-232.683901 39.62754298 39.62754298 0 0 0 31.17037393-23.14841333z m515.19335011-29.57068697A199.96088928 199.96088928 0 0 0 852.29548319 117.87401145a40.04628457 40.04628457 0 0 0-20.78417039 77.34957645 120.15296993 120.15296993 0 0 1 17.64360816 225.76760643 39.12175956 39.12175956 0 0 0-12.78573478 8.88061654c-0.30582255 0.35287252-0.7057443 0.58812012-1.01156685 0.94099188a39.13352205 39.13352205 0 0 0-5.98706438 9.4099242 40.62734811 40.62734811 0 0 0-2.35248047 5.01078503c-0.27053506 0.90570517-0.94099265 1.59968697-1.17624103 2.54067963-0.38815925 1.64673695 0 3.21113643-0.15291089 4.84611088a38.59245191 38.59245191 0 0 0-0.30582255 9.26877502 34.55794702 34.55794702 0 0 0 1.01156684 4.5755758c0.54107092 2.50539213 0.54107092 5.08135923 1.64673618 7.50441467a39.60401877 39.60401877 0 0 0 31.17037394 23.14841334 239.02383714 239.02383714 0 0 1 181.32924006 232.73095019v61.95258863a40.04510885 40.04510885 0 0 0 80.09021693 0v-61.95258863c0-122.21139033-67.96317725-230.22555805-172.18985016-284.22676028z m0 0" p-id="2236" fill="#909399"></path></svg>