<svg t="1651870090537" class="icon" viewBox="0 0 1462 1024" version="1.1" xmlns="http://www.w3.org/2000/svg" p-id="1527" width="200" height="200"><path d="M1279.707429 876.544H183.149714l196.842057-116.238629h705.887086z" fill="#D0F0E4" p-id="1528"></path><path d="M811.856457 308.282514h-197.280914V194.208914c0-7.723886 6.261029-13.984914 13.984914-13.984914h169.311086c7.723886 0 13.984914 6.261029 13.984914 13.984914v114.0736z" fill="#FFFFFF" p-id="1529"></path><path d="M796.964571 300.8512h-166.677942c-4.388571 0-7.957943-3.569371-7.957943-7.957943V195.115886c0-4.388571 3.569371-7.957943 7.957943-7.957943H796.964571c4.388571 0 7.957943 3.569371 7.957943 7.957943v97.806628c0 4.388571-3.569371 7.928686-7.957943 7.928686z" fill="#66B0F0" p-id="1530"></path><path d="M846.4384 335.0528c7.548343 4.9152 5.792914 14.5408-3.130514 14.5408h-268.756115c-7.519086 0-10.093714-10.152229-2.720914-14.804114l274.607543 0.263314z" fill="#66B0F0" p-id="1531"></path><path d="M843.307886 342.893714h-268.756115c-4.798171 0-6.699886-5.646629-2.720914-8.104228l42.8032-26.506972H811.300571l35.108572 26.770286c3.510857 2.6624 1.462857 7.840914-3.101257 7.840914z" fill="#FFFFFF" p-id="1532"></path><path d="M812.295314 334.906514h-206.730971c-3.6864 0-5.149257-4.359314-2.106514-6.231771l29.725257-20.392229h154.477714l27.004343 20.597029c2.720914 2.048 1.141029 6.026971-2.369829 6.026971z" fill="#FFFFFF" p-id="1533"></path><path d="M709.310171 335.228343v-26.945829" fill="#FFFFFF" p-id="1534"></path><path d="M783.096686 300.8512h-148.011886l2.6624-18.870857c1.6384-11.615086 9.976686-21.152914 21.240686-24.3712l36.074057-7.489829h28.0576l36.074057 7.489829c11.293257 3.189029 19.631543 12.756114 21.240686 24.3712l2.6624 18.870857z" fill="#FFCF2D" p-id="1535"></path><path d="M719.082057 271.681829l-10.678857-10.795886c-0.234057-0.234057-0.234057-0.6144 0-0.8192 0.234057-0.234057 0.6144-0.234057 0.8192 0l9.801143 9.918171 15.213714-17.232457c0.2048-0.234057 0.585143-0.263314 0.8192-0.058514 0.234057 0.2048 0.263314 0.585143 0.058514 0.8192l-16.032914 18.168686z" fill="#FFFFFF" p-id="1536"></path><path d="M699.245714 271.681829l-16.032914-18.168686c-0.2048-0.234057-0.2048-0.6144 0.058514-0.8192 0.234057-0.2048 0.6144-0.2048 0.8192 0.058514l15.213715 17.232457 9.801142-9.918171c0.234057-0.234057 0.585143-0.234057 0.8192 0 0.234057 0.234057 0.234057 0.585143 0 0.8192l-10.678857 10.795886zM709.339429 278.7328c-1.404343 0-2.545371-1.141029-2.545372-2.545371 0-1.404343 1.141029-2.545371 2.545372-2.545372s2.545371 1.141029 2.545371 2.545372c0 1.404343-1.141029 2.545371-2.545371 2.545371z m0-3.920457c-0.760686 0-1.375086 0.6144-1.375086 1.375086s0.6144 1.375086 1.375086 1.375085 1.375086-0.6144 1.375085-1.375085-0.6144-1.375086-1.375085-1.375086zM709.339429 293.0688c-1.404343 0-2.545371-1.141029-2.545372-2.545371 0-1.404343 1.141029-2.545371 2.545372-2.545372s2.545371 1.141029 2.545371 2.545372c0 1.404343-1.141029 2.545371-2.545371 2.545371z m0-3.920457c-0.760686 0-1.375086 0.6144-1.375086 1.375086s0.6144 1.375086 1.375086 1.375085 1.375086-0.6144 1.375085-1.375085-0.6144-1.375086-1.375085-1.375086z" fill="#FFFFFF" p-id="1537"></path><path d="M694.8864 300.2368h-47.806171l-12.756115-37.858743 47.806172-13.692343z" fill="#FFFFFF" p-id="1538"></path><path d="M649.567086 267.293257h-0.906972c-2.311314 0-4.183771-1.872457-4.183771-4.183771v-13.136457c0-0.936229 0.760686-1.696914 1.696914-1.696915h3.949714c0.936229 0 1.696914 0.760686 1.696915 1.696915v15.038171c0.029257 1.258057-0.994743 2.282057-2.2528 2.282057z" fill="#FFFFFF" p-id="1539"></path><path d="M668.818286 267.293257h0.906971c2.311314 0 4.183771-1.872457 4.183772-4.183771v-13.136457c0-0.936229-0.760686-1.696914-1.696915-1.696915H668.233143c-0.936229 0-1.696914 0.760686-1.696914 1.696915v15.038171c0 1.258057 1.024 2.282057 2.282057 2.282057zM656.910629 268.814629h-2.106515c-1.6384 0-2.954971-1.316571-2.954971-2.954972v-15.857371c0-0.936229 0.760686-1.696914 1.696914-1.696915h3.949714c0.936229 0 1.696914 0.760686 1.696915 1.696915V266.532571c0 1.258057-1.024 2.282057-2.282057 2.282058z" fill="#FFFFFF" p-id="1540"></path><path d="M664.283429 269.399771h-1.755429c-1.8432 0-3.335314-1.492114-3.335314-3.335314v-16.091428c0-0.936229 0.760686-1.696914 1.696914-1.696915h3.949714c0.936229 0 1.696914 0.760686 1.696915 1.696915V267.117714c0 1.258057-1.024 2.282057-2.2528 2.282057z" fill="#FFFFFF" p-id="1541"></path><path d="M723.1488 232.916114v21.357715c0 3.6864-6.290286 6.699886-14.043429 6.699885s-14.043429-3.013486-14.043428-6.699885v-21.357715h28.086857z" fill="#FFFFFF" p-id="1542"></path><path d="M723.1488 232.916114c0 16.120686-10.327771 20.918857-20.245943 20.0704h-0.087771c-4.388571-0.4096-7.723886-4.154514-7.723886-8.543085v-11.498058h28.0576z" fill="#66B0F0" p-id="1543"></path><path d="M729.673143 227.415771v1.082515c0 2.399086-1.930971 4.330057-4.330057 4.330057h-2.223543l0.029257 0.497371c0 6.904686-5.588114 12.4928-12.4928 12.4928h-3.072c-6.904686 0-12.4928-5.588114-12.4928-12.4928l0.029257-0.497371h-2.223543c-2.399086 0-4.330057-1.930971-4.330057-4.330057v-1.082515c0-2.399086 1.930971-4.330057 4.330057-4.330057h2.837943l0.321829-5.295543c0-0.8192 0.117029-1.609143 0.351085-2.340571 8.367543 2.077257 18.168686-3.306057 20.801829-4.9152 2.925714 1.111771 5.002971 3.920457 5.002971 7.226514l0.321829 5.295543h2.837943c2.369829 0.029257 4.3008 1.960229 4.3008 4.359314z" fill="#FFFFFF" p-id="1544"></path><path d="M725.547886 223.085714h-3.042743l-0.321829-5.295543c0-3.306057-2.077257-6.114743-5.002971-7.226514-2.633143 1.579886-12.434286 6.9632-20.801829 4.9152-0.234057 0.731429-0.351086 1.521371-0.351085 2.340572l-0.321829 5.295542h-1.901714s-3.8912-18.8416-0.058515-22.293942c2.837943-2.545371 28.818286 3.013486 31.685486 6.9632 1.609143 2.2528 0.117029 15.301486 0.117029 15.301485z" fill="#E57281" p-id="1545"></path><path d="M718.2336 221.944686c-0.087771 0-0.2048-0.029257-0.292571-0.117029-0.029257-0.029257-1.930971-1.579886-4.973715-1.579886-0.234057 0-0.438857-0.2048-0.438857-0.438857s0.2048-0.438857 0.438857-0.438857c3.364571 0 5.441829 1.696914 5.5296 1.784686 0.175543 0.146286 0.2048 0.438857 0.058515 0.6144-0.058514 0.117029-0.2048 0.175543-0.321829 0.175543zM707.115886 231.0144c-0.058514 0-0.117029 0-0.146286-0.029257-0.234057-0.087771-0.351086-0.351086-0.263314-0.555886 0.8192-2.165029 0.6144-4.885943-0.526629-7.285028-0.672914-1.462857-1.6384-2.516114-2.486857-2.808686-1.872457-0.643657-4.5056 0.263314-4.534857 0.263314-0.234057 0.087771-0.468114-0.029257-0.555886-0.263314-0.087771-0.234057 0.029257-0.468114 0.263314-0.555886 0.117029-0.029257 2.925714-0.994743 5.090743-0.263314 1.082514 0.380343 2.194286 1.579886 2.984229 3.2768 1.2288 2.603886 1.4336 5.588114 0.555886 7.9872-0.029257 0.117029-0.2048 0.234057-0.380343 0.234057zM712.879543 235.666286c0.029257 0.234057-0.175543 0.438857-0.4096 0.468114h-0.029257c-0.234057 0-0.4096-0.175543-0.438857-0.4096-0.029257-0.292571-0.087771-0.585143-0.175543-0.848457-1.258057 0.6144-2.399086 0.8192-3.335315 0.8192-1.8432 0-2.954971-0.760686-3.013485-0.8192-0.2048-0.146286-0.234057-0.4096-0.117029-0.6144 0.146286-0.2048 0.4096-0.234057 0.6144-0.117029 0.058514 0.029257 0.994743 0.672914 2.516114 0.672915 0.8192 0 1.813943-0.175543 2.954972-0.731429-0.175543-0.292571-0.351086-0.468114-0.351086-0.468114-0.175543-0.175543-0.146286-0.468114 0.029257-0.6144s0.468114-0.146286 0.6144 0.029257c0.058514 0.087771 1.053257 1.199543 1.141029 2.633143z" fill="#66B0F0" p-id="1546"></path><path d="MNaN NaNaNaN NaN NaN 1 0 NaN NaN NaN NaN NaN 1 0 NaN NaNZ" fill="#66B0F0" p-id="1547"></path><path d="MNaN NaNaNaN NaN NaN 1 0 NaN NaN NaN NaN NaN 1 0 NaN NaNZ" fill="#66B0F0" p-id="1548"></path><path d="M694.330514 228.820114c-0.234057 0-0.438857-0.2048-0.438857-0.438857 0-1.287314-1.053257-2.311314-2.311314-2.311314-0.234057 0-0.438857-0.2048-0.438857-0.438857s0.2048-0.438857 0.438857-0.438857c1.755429 0 3.189029 1.4336 3.189028 3.189028 0 0.263314-0.2048 0.438857-0.438857 0.438857zM723.7632 228.820114c-0.234057 0-0.438857-0.2048-0.438857-0.438857 0-1.755429 1.4336-3.189029 3.189028-3.189028 0.234057 0 0.438857 0.2048 0.438858 0.438857s-0.2048 0.438857-0.438858 0.438857c-1.287314 0-2.311314 1.053257-2.311314 2.311314 0 0.263314-0.175543 0.438857-0.438857 0.438857z" fill="#66B0F0" p-id="1549"></path><path d="M672.5632 371.243886h78.584686v67.496228h-78.584686v-67.496228z" fill="#FFCF2D" p-id="1550"></path><path d="M966.421943 684.8512l-36.542172-90.989714h58.836115zM866.157714 472.415086c7.840914-14.833371 23.259429-24.107886 40.023772-24.107886H951.442286l30.749257 24.107886h-116.033829z" fill="#9A3B82" p-id="1551"></path><path d="M1037.750857 578.940343h-114.015086l42.920229 104.184686c-2.984229-4.856686-20.860343 0.2048-39.789714 11.819885-18.695314 11.4688-31.3344 25.278171-28.759772 30.3104l-92.511085-160.9728c-23.990857-40.608914 5.266286-91.867429 52.4288-91.867428H1113.526857l0.555886 1.755428c16.676571 51.785143-21.942857 104.769829-76.331886 104.769829z" fill="#3FB1B5" p-id="1552"></path><path d="M1117.944686 502.286629c-0.4096 9.508571-2.516114 18.695314-6.085486 27.209142l-133.997714-57.051428h133.002971l3.101257 9.069714c2.165029 5.441829 3.364571 13.077943 3.978972 20.772572z" fill="#E6E6E6" p-id="1553"></path><path d="M966.685257 683.125029c2.984229 4.856686-10.064457 18.110171-28.964571 29.725257-18.929371 11.615086-36.512914 17.437257-39.497143 12.580571-2.984229-4.856686 9.742629-18.578286 28.672-30.193371 18.900114-11.615086 36.776229-16.969143 39.789714-12.112457z" fill="#66B0F0" p-id="1554"></path><path d="M929.850514 732.130743l-7.899428-10.766629-10.883657-14.804114c4.447086-3.744914 9.801143-7.636114 15.798857-11.322514 11.936914-7.314286 23.434971-12.170971 31.071085-13.5168l5.295543 10.561828 6.612115 13.165715c-4.681143 16.647314-39.994514 26.682514-39.994515 26.682514z" fill="#E57281" p-id="1555"></path><path d="M963.262171 692.282514c-4.9152 5.997714-14.160457 13.575314-25.541485 20.567772-5.471086 3.364571-10.825143 6.231771-15.740343 8.513828l-10.883657-14.804114c4.447086-3.744914 9.801143-7.636114 15.798857-11.322514 11.936914-7.314286 23.434971-12.170971 31.071086-13.5168l5.295542 10.561828z" fill="#9A3B82" p-id="1556"></path><path d="M1006.006857 763.465143l-80.2816 57.665828c-6.816914 4.739657-17.408 8.689371-16.003657-8.455314 1.960229-23.639771 7.197257-58.806857 20.128914-80.574171 0.555886-0.146286 35.313371-10.181486 39.994515-26.682515L1006.445714 731.428571c10.532571 8.192 10.298514 24.1664-0.438857 32.036572z" fill="#FFFFFF" p-id="1557"></path><path d="M917.504 815.191771s52.399543-72.791771 89.673143-68.695771c40.579657 4.417829-122.850743 111.147886-89.673143 68.695771z" fill="#FFCF2D" p-id="1558"></path><path d="M1118.237257 508.225829c-18.549029-4.388571-64.7168-15.945143-117.379657-28.116115-24.751543-5.705143-45.4656-22.557257-56.144457-45.611885l-47.952457-103.745829 29.023085-45.992229c8.923429-14.160457 24.137143-23.171657 40.842972-24.195657l28.554971-1.755428c28.789029-1.755429 51.902171 16.208457 60.679315 43.680914l58.075428 169.925486c6.378057 15.915886 4.3008 35.810743 4.3008 35.810743z" fill="#FFFFFF" p-id="1559"></path><path d="M942.606629 292.922514c-1.579886-1.696914-4.359314-1.2288-5.3248 0.848457-1.082514 2.340571 0.877714 4.944457 3.423085 4.564115 2.603886-0.380343 3.6864-3.510857 1.901715-5.412572zM1015.486171 342.922971c-1.579886-1.696914-4.359314-1.2288-5.3248 0.848458-1.082514 2.340571 0.877714 4.944457 3.423086 4.564114 2.603886-0.380343 3.6864-3.510857 1.901714-5.412572zM1038.570057 363.402971c-1.579886-1.696914-4.359314-1.2288-5.3248 0.848458-1.082514 2.340571 0.877714 4.944457 3.423086 4.564114 2.574629-0.351086 3.657143-3.4816 1.901714-5.412572zM1082.836114 479.290514c-1.579886-1.696914-4.359314-1.2288-5.3248 0.848457-1.082514 2.340571 0.877714 4.944457 3.423086 4.564115 2.574629-0.380343 3.657143-3.4816 1.901714-5.412572zM1058.055314 423.906743c-1.579886-1.696914-4.359314-1.2288-5.3248 0.848457-1.082514 2.340571 0.877714 4.944457 3.423086 4.564114 2.603886-0.380343 3.6864-3.510857 1.901714-5.412571zM1068.324571 384.058514c-2.282057 0.292571-3.540114 2.837943-2.399085 4.827429 1.287314 2.2528 4.534857 2.165029 5.705143-0.146286 1.199543-2.340571-0.731429-5.032229-3.306058-4.681143zM1087.019886 443.157943c-2.282057 0.292571-3.540114 2.837943-2.399086 4.827428 1.287314 2.2528 4.534857 2.165029 5.705143-0.146285 1.199543-2.340571-0.702171-5.032229-3.306057-4.681143zM1009.488457 379.406629c-1.579886-1.696914-4.359314-1.2288-5.3248 0.848457-1.082514 2.340571 0.877714 4.944457 3.423086 4.564114 2.574629-0.380343 3.657143-3.4816 1.901714-5.412571zM993.367771 412.554971c-1.579886-1.696914-4.359314-1.2288-5.3248 0.848458-1.082514 2.340571 0.877714 4.944457 3.423086 4.564114 2.603886-0.380343 3.6864-3.510857 1.901714-5.412572zM964.520229 400.969143c1.696914-1.579886 1.2288-4.359314-0.848458-5.3248-2.340571-1.082514-4.944457 0.877714-4.564114 3.423086 0.380343 2.574629 3.4816 3.657143 5.412572 1.901714zM990.120229 458.020571c1.696914-1.579886 1.2288-4.359314-0.848458-5.3248-2.340571-1.082514-4.944457 0.877714-4.564114 3.423086 0.380343 2.603886 3.510857 3.6864 5.412572 1.901714zM1033.216 409.073371c1.696914-1.579886 1.2288-4.359314-0.848457-5.3248-2.340571-1.082514-4.944457 0.877714-4.564114 3.423086 0.380343 2.574629 3.510857 3.6864 5.412571 1.901714zM1047.932343 470.337829c1.696914-1.579886 1.2288-4.359314-0.848457-5.3248-2.340571-1.082514-4.944457 0.877714-4.564115 3.423085 0.351086 2.603886 3.4816 3.6864 5.412572 1.901715zM959.6928 346.258286c-1.579886-1.696914-4.359314-1.2288-5.3248 0.848457-1.082514 2.340571 0.877714 4.944457 3.423086 4.564114 2.603886-0.380343 3.6864-3.510857 1.901714-5.412571zM964.929829 270.365257c-1.579886-1.696914-4.359314-1.2288-5.3248 0.848457-1.082514 2.340571 0.877714 4.944457 3.423085 4.564115 2.603886-0.380343 3.6864-3.510857 1.901715-5.412572zM1015.486171 270.365257c-1.579886-1.696914-4.359314-1.2288-5.3248 0.848457-1.082514 2.340571 0.877714 4.944457 3.423086 4.564115 2.603886-0.380343 3.6864-3.510857 1.901714-5.412572zM1015.573943 303.133257c-2.135771 0.848457-2.750171 3.598629-1.141029 5.266286 1.784686 1.8432 4.9152 0.994743 5.500343-1.521372 0.585143-2.545371-1.930971-4.7104-4.359314-3.744914zM986.843429 284.4672c-2.223543 0.643657-3.072 3.306057-1.667658 5.12 1.609143 2.018743 4.798171 1.462857 5.617372-0.965486 0.848457-2.486857-1.462857-4.885943-3.949714-4.154514zM982.601143 365.509486c-2.282057 0.263314-3.569371 2.779429-2.4576 4.798171 1.258057 2.2528 4.5056 2.223543 5.705143-0.058514 1.2288-2.311314-0.643657-5.032229-3.247543-4.739657zM957.527771 426.452114c-2.282057 0.263314-3.569371 2.779429-2.4576 4.798172 1.258057 2.2528 4.5056 2.223543 5.705143-0.058515 1.2288-2.311314-0.643657-5.032229-3.247543-4.739657zM965.953829 308.6336c-2.223543 0.643657-3.072 3.306057-1.667658 5.12 1.609143 2.018743 4.798171 1.462857 5.617372-0.965486 0.848457-2.4576-1.4336-4.856686-3.949714-4.154514zM990.178743 325.0176c-2.223543 0.643657-3.072 3.306057-1.667657 5.12 1.609143 2.018743 4.798171 1.462857 5.617371-0.965486 0.848457-2.486857-1.4336-4.885943-3.949714-4.154514zM937.720686 324.315429c1.462857-1.784686 0.672914-4.476343-1.550629-5.149258-2.4576-0.760686-4.798171 1.521371-4.066743 3.978972 0.731429 2.516114 3.949714 3.189029 5.617372 1.170286zM1048.634514 324.4032c1.462857-1.784686 0.672914-4.476343-1.550628-5.149257-2.4576-0.760686-4.798171 1.521371-4.066743 3.978971 0.702171 2.516114 3.949714 3.189029 5.617371 1.170286zM1020.489143 443.011657c1.462857-1.784686 0.672914-4.476343-1.550629-5.149257-2.4576-0.760686-4.798171 1.521371-4.066743 3.978971 0.702171 2.486857 3.949714 3.159771 5.617372 1.170286z" fill="#FFCF2D" p-id="1560"></path><path d="M997.141943 257.8432c-0.643657 0.029257-1.287314 0.058514-1.960229 0.087771l-28.554971 1.755429c-7.285029 0.438857-14.248229 2.399086-20.567772 5.646629l-8.777142-26.272915 39.1168-28.672 20.743314 47.455086z" fill="#E57281" p-id="1561"></path><path d="M945.941943 264.923429c8.133486-3.6864 14.628571-10.24 18.314971-18.373486l14.218972-31.451429-2.077257-4.739657-39.1168 28.672 8.660114 25.892572z" fill="#9A3B82" p-id="1562"></path><path d="M978.914743 213.021257c0 2.720914-1.111771 5.178514-2.896457 6.9632-1.784686 1.784686-4.242286 2.896457-6.9632 2.896457h-8.6016c-3.393829 13.194971-16.530286 22.235429-30.661486 19.748572l-6.465829-1.141029c-7.080229-1.258057-11.907657-7.870171-10.912914-14.979657l7.5776-37.946514c1.316571-8.104229 9.654857-13.048686 17.408-10.269257l12.551314 5.032228c6.787657 2.340571 11.351771 8.718629 11.351772 15.886629v3.657143l7.753143 0.292571c5.441829 0 9.859657 4.417829 9.859657 9.859657z" fill="#E57281" p-id="1563"></path><path d="M926.288333 210.318189a1.462857 3.130514 10.3 1 0 1.119486-6.160132 1.462857 3.130514 10.3 1 0-1.119486 6.160132Z" fill="#9A3B82" p-id="1564"></path><path d="M969.055086 203.1616c5.441829 0 9.859657 4.417829 9.859657 9.859657v0.146286c4.388571-6.7584 15.1552-23.9616 15.1552-29.783772 0-7.811657-9.742629-15.623314-19.836343-12.053942 0.672914-0.497371 1.375086-1.024 2.106514-1.579886 3.8912-3.042743 5.9392-5.3248 6.261029-6.9632 0.117029-0.585143 0.029257-1.111771-0.263314-1.521372-1.170286-1.667657-2.4576-2.399086-3.832686-2.165028-2.018743 0.321829-4.096 2.808686-6.173257 7.3728-0.936229 2.077257-1.667657 4.125257-2.077257 5.383314-0.8192-4.885943-4.768914-21.065143-21.738058-18.578286-5.851429 0.848457-8.6016 3.2768-9.362285 5.9392-4.856686-3.803429-11.351771-6.787657-16.735086-3.949714-9.303771 4.885943-8.162743 12.9024-2.779429 18.578286-5.090743-0.087771-8.660114 1.404343-8.660114 5.705143 0 3.949714 4.066743 5.851429 9.654857 6.612114 5.588114 0.760686 12.756114 0.351086 18.958629-0.351086 4.417829-0.497371 8.3968-1.111771 10.942171-1.550628-1.696914 3.4816-2.369829 6.465829-2.223543 8.981943 0.263314 5.207771 4.037486 8.279771 9.362286 9.362285 1.141029 0.234057 2.369829 0.380343 3.627886 0.438857l7.753143 0.117029z m9.6256-42.890971c0.087771-0.029257 0.175543-0.029257 0.292571-0.029258 0.8192 0 1.609143 0.585143 2.399086 1.696915 0.058514 0.117029 0.146286 0.292571 0.087771 0.6144-0.468114 2.369829-6.465829 6.875429-9.947428 9.245257 1.375086-4.037486 4.271543-11.029943 7.168-11.527314z" fill="#FFCF2D" p-id="1565"></path><path d="M945.707886 168.930743c-2.018743 0-4.066743-1.082514-5.558857-2.984229-1.667657-2.106514-2.223543-4.7104-1.521372-6.9632a0.585143 0.585143 0 0 1 0.672914-0.4096c0.117029 0 0.234057 0.029257 0.321829 0.117029 4.417829 3.159771 7.957943 7.665371 7.431314 9.450057-0.117029 0.468114-0.497371 0.760686-0.994743 0.789943h-0.351085z m-6.144-8.835657c-0.263314 1.696914 0.263314 3.569371 1.492114 5.12 1.316571 1.667657 3.130514 2.633143 4.885943 2.516114 0.058514-0.760686-1.901714-4.242286-6.378057-7.636114z" fill="#FFFFFF" p-id="1566"></path><path d="M887.954286 427.271314h-187.245715c-4.622629 0-7.402057-5.090743-4.944457-8.981943l24.927086-39.146057c3.247543-5.090743 8.835657-8.162743 14.862629-8.162743h126.741942l25.658515 56.290743z" fill="#E57281" p-id="1567"></path><path d="M739.679086 371.009829l14.921143-24.576c0.877714-1.462857 2.486857-2.369829 4.183771-2.369829 3.832686 0 6.173257 4.183771 4.183771 7.460571l-11.849142 19.485258h-11.439543z" fill="#FE5244" p-id="1568"></path><path d="M887.954286 427.271314h-42.101029l-0.292571-0.292571c-10.24-10.532571-14.599314-26.506971-8.835657-41.896229l5.997714-14.101943h19.573028l25.658515 56.290743z" fill="#9A3B82" p-id="1569"></path><path d="M727.157029 400.9984h-23.464229c-1.579886 0-3.042743 0.848457-3.832686 2.223543l-2.486857 4.330057c-1.667657 2.925714 0.438857 6.582857 3.832686 6.582857h18.870857c3.2768 0 6.319543-1.696914 8.045714-4.5056l2.018743-3.306057c1.404343-2.340571-0.263314-5.3248-2.984228-5.3248zM721.1008 414.134857h-23.464229c-1.579886 0-3.042743 0.848457-3.832685 2.223543l-2.486857 4.330057c-1.667657 2.925714 0.438857 6.582857 3.832685 6.582857h18.870857c3.2768 0 6.319543-1.696914 8.045715-4.5056l2.018743-3.306057c1.4336-2.340571-0.263314-5.3248-2.984229-5.3248zM733.856914 387.6864h-23.464228c-1.579886 0-3.042743 0.848457-3.832686 2.223543l-2.486857 4.330057c-1.667657 2.925714 0.438857 6.582857 3.832686 6.582857h18.870857c3.2768 0 6.319543-1.696914 8.045714-4.5056l2.018743-3.306057c1.4336-2.340571-0.263314-5.3248-2.984229-5.3248z" fill="#E57281" p-id="1570"></path><path d="M767.824457 407.259429c-7.050971 0-13.838629-2.545371-19.163428-7.197258l-8.894172-7.7824h-8.192l-2.106514 2.2528c-3.774171 4.037486-8.426057 6.3488-13.955657 6.3488h-3.920457c-2.048 0-3.306057-2.282057-2.194286-4.008228l9.859657-15.447772h48.596114v25.834058z" fill="#E57281" p-id="1571"></path><path d="M965.368686 372.560457L920.693029 422.473143c-9.391543 10.503314-22.820571 16.501029-36.922515 16.501028-27.8528 0-47.133257-27.794286-37.361371-53.891657L899.4816 260.388571l-17.934629-10.0352c-2.545371-1.989486-3.774171-5.237029-3.218285-8.3968l3.042743-20.509257c0.936229-4.564114 5.588114-8.133486 10.122971-9.186743l21.006629-4.739657c1.784686-0.4096 3.423086 1.111771 3.130514 2.896457l-3.042743 15.828115c-1.199543 7.723886 4.008229 14.394514 11.732114 15.711085 6.319543 1.082514 10.766629 7.431314 10.181486 13.809372l-14.306743 89.234286c-0.029257 0.058514 14.628571 22.908343 45.173029 27.560228z" fill="#E57281" p-id="1572"></path><path d="M933.302857 594.7392h184.612572c2.4576 0 4.447086-1.989486 4.447085-4.447086V584.265143c0-2.4576-1.989486-4.447086-4.447085-4.447086h-184.612572c-2.4576 0-4.447086 1.989486-4.447086 4.447086v6.026971c0 2.4576 1.989486 4.447086 4.447086 4.447086z" fill="#FFFFFF" p-id="1573"></path><path d="M626.102857 380.810971l-28.2624 58.1632h-85.4016l34.318629-58.1632z" fill="#FFFFFF" p-id="1574"></path><path d="M658.2272 641.8432c0 7.811657-21.679543 14.1312-48.830171 14.1312-27.150629 0-48.186514-6.319543-48.186515-14.1312s21.035886-14.1312 48.186515-14.1312c27.150629 0 48.830171 6.3488 48.830171 14.1312z" fill="#FE5244" p-id="1575"></path><path d="M645.7344 632.334629v100.937142l-3.072-14.570057c-3.306057-15.681829-17.144686-26.887314-33.1776-26.887314-4.827429 0-9.567086 1.024-13.867886 2.954971-0.146286 0.058514-0.292571 0.146286-0.468114 0.2048l-11.264-41.077028-6.261029-22.849829c8.572343-2.077257 19.6608-3.335314 31.773258-3.335314 14.394514 0 27.355429 1.784686 36.337371 4.622629z" fill="#A0505A" p-id="1576"></path><path d="M645.7344 632.334629v19.017142c-8.981943 2.837943-21.942857 4.622629-36.337371 4.622629-9.333029 0-18.051657-0.760686-25.512229-2.048l-6.261029-22.849829c8.572343-2.077257 19.6608-3.335314 31.773258-3.335314 14.394514-0.029257 27.355429 1.755429 36.337371 4.593372z" fill="#73325A" p-id="1577"></path><path d="M643.569371 730.3168c0.789943 0.234057 8.221257 2.311314 14.804115 2.311314 3.569371 0 6.875429-0.6144 8.747885-2.486857 1.609143-1.609143 1.989486-3.949714 1.141029-6.904686-0.760686-2.633143-2.223543-4.271543-4.359314-4.856685-3.920457-1.053257-9.362286 1.872457-13.663086 4.944457 6.699886-8.133486 13.312-18.461257 10.8544-25.219657-0.877714-2.399086-2.8672-4.008229-5.354057-4.3008-2.077257-0.234057-4.008229 0.497371-4.9152 1.872457-4.213029 6.407314-7.665371 32.709486-7.811657 33.821257l0.555885 0.8192z m8.484572-33.821257c0.526629-0.789943 1.6384-1.258057 2.925714-1.258057 0.2048 0 0.4096 0 0.6144 0.029257 0.936229 0.117029 3.189029 0.643657 4.154514 3.335314 0.643657 1.784686 0.877714 5.061486-1.726171 10.561829-2.4576 5.207771-6.904686 11.322514-13.224229 18.256457 0.936229-6.670629 3.920457-25.863314 7.255772-30.9248z m14.043428 32.621714c-1.930971 1.930971-6.319543 2.516114-12.726857 1.696914-3.364571-0.438857-6.495086-1.141029-8.162743-1.579885 1.258057-1.111771 3.598629-3.130514 6.319543-5.002972 5.207771-3.598629 9.362286-5.149257 12.024686-4.417828 1.609143 0.438857 2.691657 1.696914 3.335314 3.832685 0.702171 2.4576 0.438857 4.242286-0.789943 5.471086z" fill="#FFCF2D" p-id="1578"></path><path d="M584.177371 703.166171l-6.7584 7.5776c-7.665371 8.6016-8.923429 21.123657-3.101257 31.071086l29.754515 51.024457c5.822171 9.976686 16.501029 16.091429 28.028342 16.091429h12.317258c8.923429 0 15.5648-8.192 13.7216-16.910629l-15.506286-73.289143c-3.306057-15.681829-17.144686-26.887314-33.1776-26.887314-9.6256-0.029257-18.8416 4.096-25.278172 11.322514z" fill="#FFFFFF" p-id="1579"></path><path d="M607.202743 725.226057l38.414628 74.430172c1.813943 3.364571 4.066743 5.5296 6.641372 6.904685-2.223543 1.492114-4.9152 2.399086-7.840914 2.399086h-12.317258c-11.556571 0-22.235429-6.144-28.028342-16.091429L574.317714 741.814857c-1.199543-2.077257-2.106514-4.242286-2.720914-6.495086-4.213029-15.652571 13.604571-27.940571 26.975086-18.753828 3.042743 2.077257 6.026971 4.885943 8.630857 8.660114z" fill="#3FB1B5" p-id="1580"></path><path d="M607.290514 725.4016h-35.459657c0.175543-0.555886 0.380343-1.082514 0.6144-1.579886h33.704229c0.351086 0.468114 0.702171 0.936229 1.053257 1.4336l0.087771 0.146286zM612.498286 735.466057h-40.842972c0-0.058514-0.029257-0.117029-0.029257-0.146286-0.117029-0.468114-0.234057-0.965486-0.321828-1.4336h40.404114l0.789943 1.579886zM617.706057 745.559771h-41.194057l-0.936229-1.609142h41.311086zM622.913829 755.653486h-40.521143l-0.936229-1.609143h40.638172zM628.1216 765.717943h-39.848229l-0.936228-1.579886h39.965257zM633.329371 775.811657h-39.175314l-0.936228-1.609143h39.263085zM638.537143 785.905371h-38.5024l-0.936229-1.609142h38.590172zM643.715657 795.969829h-37.566171c-0.380343-0.526629-0.760686-1.053257-1.111772-1.579886h37.858743l0.8192 1.579886zM651.410286 806.063543h-32.650972a30.427429 30.427429 0 0 1-3.072-1.579886h33.616457c0.672914 0.585143 1.375086 1.111771 2.106515 1.579886z" fill="#FFFFFF" p-id="1581"></path><path d="M538.389943 639.765943c-0.263314 7.723886-22.176914 13.984914-49.152 13.984914s-48.888686-6.231771-49.152-13.984914v-60.8256h98.304v60.8256z" fill="#73325A" p-id="1582"></path><path d="M531.8656 649.859657l-0.146286 7.226514-1.404343 70.538972v-2.048c0-18.110171-14.687086-32.797257-32.797257-32.797257h-1.989485c-9.245257 0-17.583543 3.598629-23.7568 9.391543l-4.3008-29.0816-2.6624-17.993143c7.197257 1.199543 15.535543 1.872457 24.400457 1.872457 18.256457-0.029257 34.143086-2.896457 42.656914-7.109486z" fill="#A0505A" p-id="1583"></path><path d="M531.8656 649.859657l-0.146286 7.226514c-10.883657 7.723886-44.500114 17.232457-64.219428 15.9744l-2.6624-17.993142c7.197257 1.170286 15.535543 1.872457 24.400457 1.872457 18.2272 0 34.113829-2.8672 42.627657-7.080229z" fill="#73325A" p-id="1584"></path><path d="M499.009829 809.896229h5.441828c14.277486 0 25.863314-11.585829 25.863314-25.863315V725.577143c0-18.110171-14.687086-32.797257-32.797257-32.797257h-1.989485c-21.065143 0-37.302857 18.578286-34.464915 39.467885l6.875429 50.556343c2.135771 15.506286 15.389257 27.092114 31.071086 27.092115z" fill="#FFFFFF" p-id="1585"></path><path d="M522.181486 802.845257c-4.622629 4.359314-10.883657 7.050971-17.729829 7.050972h-5.441828c-15.681829 0-28.935314-11.585829-31.041829-27.092115l-6.875429-50.556343c-0.117029-0.965486-0.234057-1.930971-0.263314-2.8672 1.755429-11.205486 11.439543-19.777829 23.1424-19.777828 5.763657 0 11.088457 2.106514 15.213714 5.617371 4.125257 3.510857 7.021714 8.455314 7.928686 14.160457l9.040457 61.703315c0.672914 4.593371 2.837943 8.689371 6.026972 11.761371z" fill="#3FB1B5" p-id="1586"></path><path d="M504.393143 721.568914h-40.872229c0.292571-0.555886 0.643657-1.082514 0.994743-1.579885h38.912c0.351086 0.497371 0.672914 1.024 0.965486 1.579885zM507.435886 731.633371h-46.431086c-0.058514-0.526629-0.117029-1.053257-0.146286-1.579885h46.343315l0.234057 1.579885zM508.928 741.727086h-46.548114l-0.234057-1.579886h46.548114zM510.390857 751.8208h-46.635886l-0.234057-1.609143h46.635886zM511.882971 761.885257h-46.752914l-0.234057-1.579886h46.752914zM513.345829 771.978971h-46.869943l-0.2048-1.579885h46.840685zM514.837943 782.072686h-46.986972l-0.2048-1.609143h46.957715zM516.330057 792.137143H470.747429c-0.263314-0.526629-0.497371-1.053257-0.702172-1.579886h46.021486l0.087771 0.526629 0.175543 1.053257zM521.567086 802.230857h-43.095772c-0.585143-0.497371-1.170286-1.053257-1.696914-1.579886h43.446857c0.4096 0.555886 0.877714 1.082514 1.345829 1.579886z" fill="#FFFFFF" p-id="1587"></path><path d="M559.659886 323.613257v49.269029c-2.135771-5.588114-19.0464-4.798171-37.653943 2.2528-15.945143 6.056229-27.911314 14.365257-29.666743 20.128914v-69.339429c0-20.626286 11.029943-39.058286 27.969829-49.122742 22.001371 3.832686 39.350857 22.996114 39.350857 46.811428zM491.051886 279.025371c-14.979657 10.415543-24.517486 27.706514-24.517486 46.8992v57.197715h-83.295086l11.498057-49.503086c4.885943-21.0944 20.158171-37.917257 40.053029-45.085257l56.261486-9.508572z" fill="#FFCF2D" p-id="1588"></path><path d="M659.514514 523.849143V638.683429c0-7.811657-22.966857-14.1312-50.117485-14.1312-27.150629 0-49.152 6.319543-49.152 14.1312v-55.032686c0-2.574629-2.106514-4.681143-4.681143-4.681143h-149.328457c-44.909714 0-78.116571-41.808457-67.964343-85.547886l36.0448-155.296914c5.7344-24.7808 25.8048-43.651657 50.878171-47.9232l9.596343-1.6384c-19.894857 7.168-35.167086 23.990857-40.053029 45.085257l-11.498057 49.503086h83.295086V325.924571c0-19.192686 9.567086-36.512914 24.517486-46.8992l13.165714-2.223542c2.720914-0.468114 5.383314-0.672914 8.045714-0.672915h1.024c0.321829 0 0.643657 0.029257 0.936229 0.029257h0.175543c0.234057 0 0.497371 0.029257 0.731428 0.029258h0.117029c0.146286 0 0.292571 0.029257 0.4096 0.029257 0.263314 0.029257 0.497371 0.029257 0.760686 0.058514 0.292571 0.029257 0.6144 0.058514 0.906971 0.087771 0.292571 0.029257 0.555886 0.058514 0.848457 0.087772 0.058514 0 0.117029 0.029257 0.2048 0.029257 0.292571 0.029257 0.6144 0.087771 0.906972 0.117029h0.058514c0.321829 0.058514 0.643657 0.087771 0.965486 0.146285-16.939886 10.064457-27.969829 28.496457-27.969829 49.122743v140.580572h109.831314c31.656229 0.058514 57.344 25.717029 57.344 57.402514z" fill="#FE5244" p-id="1589"></path><path d="M438.564571 560.186514c-0.146286 0-0.292571-0.029257-0.4096-0.117028l-3.861942-2.106515c-0.438857-0.234057-0.585143-0.760686-0.351086-1.199542s0.760686-0.585143 1.199543-0.351086l3.861943 2.106514c0.438857 0.234057 0.585143 0.760686 0.351085 1.199543-0.175543 0.292571-0.468114 0.468114-0.789943 0.468114z m3.861943-0.994743c-0.321829 0-0.6144-0.175543-0.760685-0.468114-0.234057-0.438857-0.087771-0.965486 0.351085-1.199543l3.861943-2.106514c0.438857-0.234057 0.965486-0.058514 1.199543 0.351086 0.234057 0.438857 0.087771 0.965486-0.351086 1.199543l-3.861943 2.106514c-0.146286 0.058514-0.292571 0.117029-0.438857 0.117028z m-11.585828-3.189028c-0.146286 0-0.292571-0.029257-0.4096-0.117029l-3.861943-2.106514c-0.438857-0.234057-0.585143-0.760686-0.351086-1.199543 0.234057-0.438857 0.760686-0.585143 1.199543-0.351086l3.861943 2.106515c0.438857 0.234057 0.585143 0.760686 0.351086 1.199543-0.175543 0.292571-0.468114 0.468114-0.789943 0.468114z m19.280457-1.024c-0.321829 0-0.6144-0.175543-0.760686-0.468114-0.234057-0.438857-0.087771-0.965486 0.351086-1.199543l3.861943-2.106515c0.672914-0.351086 1.287314-0.760686 1.901714-1.199542 0.380343-0.292571 0.936229-0.2048 1.2288 0.175542 0.292571 0.380343 0.2048 0.936229-0.175543 1.2288-0.672914 0.497371-1.375086 0.936229-2.106514 1.345829l-3.861943 2.106514c-0.146286 0.087771-0.292571 0.117029-0.438857 0.117029z m-26.916572-3.306057c-0.175543 0-0.351086-0.058514-0.526628-0.175543-1.2288-0.906971-2.369829-1.960229-3.335314-3.159772-0.321829-0.380343-0.263314-0.936229 0.117028-1.2288 0.380343-0.321829 0.936229-0.263314 1.2288 0.117029 0.877714 1.082514 1.901714 2.018743 3.013486 2.837943 0.380343 0.292571 0.468114 0.848457 0.2048 1.2288-0.146286 0.263314-0.4096 0.380343-0.702172 0.380343z m35.957029-3.072c-0.2048 0-0.380343-0.058514-0.555886-0.2048-0.380343-0.292571-0.438857-0.848457-0.117028-1.2288 0.877714-1.082514 1.609143-2.2528 2.194285-3.540115 0.2048-0.438857 0.731429-0.643657 1.170286-0.438857 0.438857 0.2048 0.643657 0.731429 0.438857 1.170286-0.643657 1.404343-1.462857 2.720914-2.428343 3.8912-0.2048 0.234057-0.438857 0.351086-0.702171 0.351086z m-41.457371-3.627886c-0.321829 0-0.643657-0.175543-0.789943-0.497371-0.643657-1.404343-1.111771-2.8672-1.404343-4.388572-0.087771-0.468114 0.234057-0.936229 0.702171-1.024 0.468114-0.087771 0.936229 0.234057 1.024 0.702172 0.263314 1.375086 0.672914 2.691657 1.258057 3.949714 0.2048 0.438857 0 0.965486-0.438857 1.170286-0.117029 0.058514-0.234057 0.087771-0.351085 0.087771z m45.085257-4.271543h-0.146286c-0.468114-0.087771-0.789943-0.555886-0.702171-1.024 0.175543-0.965486 0.263314-1.930971 0.263314-2.896457v-1.316571c0-0.497371 0.380343-0.877714 0.877714-0.877715s0.877714 0.380343 0.877714 0.877715v1.316571c0 1.082514-0.087771 2.165029-0.292571 3.218286-0.087771 0.4096-0.468114 0.702171-0.877714 0.702171z m-46.6944-4.271543c-0.497371 0-0.877714-0.380343-0.877715-0.877714v-4.388571c0-0.497371 0.380343-0.877714 0.877715-0.877715s0.877714 0.380343 0.877714 0.877715v4.388571c0 0.468114-0.4096 0.877714-0.877714 0.877714z m46.957714-4.476343c-0.497371 0-0.877714-0.380343-0.877714-0.877714v-4.388571c0-0.497371 0.380343-0.877714 0.877714-0.877715s0.877714 0.380343 0.877714 0.877715v4.388571c0 0.497371-0.380343 0.877714-0.877714 0.877714z m-46.957714-4.3008c-0.497371 0-0.877714-0.380343-0.877715-0.877714v-4.388571c0-0.497371 0.380343-0.877714 0.877715-0.877715s0.877714 0.380343 0.877714 0.877715v4.388571c0 0.468114-0.4096 0.877714-0.877714 0.877714z m46.957714-4.476342c-0.497371 0-0.877714-0.380343-0.877714-0.877715v-4.388571c0-0.497371 0.380343-0.877714 0.877714-0.877714s0.877714 0.380343 0.877714 0.877714v4.388571c0 0.497371-0.380343 0.877714-0.877714 0.877715z m-46.957714-4.3008c-0.497371 0-0.877714-0.380343-0.877715-0.877715v-4.388571c0-0.497371 0.380343-0.877714 0.877715-0.877714s0.877714 0.380343 0.877714 0.877714v4.388571c0 0.468114-0.4096 0.877714-0.877714 0.877715z m46.957714-4.476343c-0.497371 0-0.877714-0.380343-0.877714-0.877715v-4.388571c0-0.497371 0.380343-0.877714 0.877714-0.877714s0.877714 0.380343 0.877714 0.877714v4.388571c0 0.497371-0.380343 0.877714-0.877714 0.877715z m-46.957714-4.3008c-0.497371 0-0.877714-0.380343-0.877715-0.877715v-3.774171h2.369829c0.497371 0 0.877714 0.380343 0.877714 0.877714s-0.380343 0.877714-0.877714 0.877715h-0.6144v2.018742c0 0.468114-0.4096 0.877714-0.877714 0.877715z m45.377828-2.896457h-4.388571c-0.497371 0-0.877714-0.380343-0.877714-0.877715s0.380343-0.877714 0.877714-0.877714h4.388571c0.497371 0 0.877714 0.380343 0.877715 0.877714s-0.380343 0.877714-0.877715 0.877715z m-8.777143 0h-4.388571c-0.497371 0-0.877714-0.380343-0.877714-0.877715s0.380343-0.877714 0.877714-0.877714h4.388571c0.497371 0 0.877714 0.380343 0.877715 0.877714s-0.380343 0.877714-0.877715 0.877715z m-8.777142 0h-4.388572c-0.497371 0-0.877714-0.380343-0.877714-0.877715s0.380343-0.877714 0.877714-0.877714h4.388572c0.497371 0 0.877714 0.380343 0.877714 0.877714s-0.380343 0.877714-0.877714 0.877715z m-8.777143 0h-4.388572c-0.497371 0-0.877714-0.380343-0.877714-0.877715s0.380343-0.877714 0.877714-0.877714h4.388572c0.497371 0 0.877714 0.380343 0.877714 0.877714s-0.380343 0.877714-0.877714 0.877715z m-8.777143 0h-4.388572c-0.497371 0-0.877714-0.380343-0.877714-0.877715s0.380343-0.877714 0.877714-0.877714h4.388572c0.497371 0 0.877714 0.380343 0.877714 0.877714s-0.380343 0.877714-0.877714 0.877715zM355.766857 555.329829c-0.321829 0-0.6144-0.175543-0.760686-0.468115-0.234057-0.438857-0.087771-0.965486 0.351086-1.199543l3.569372-1.960228c0.087771-0.058514 0.175543-0.087771 0.263314-0.146286 0.4096-0.234057 0.965486-0.087771 1.199543 0.321829 0.234057 0.4096 0.087771 0.965486-0.321829 1.199543-0.087771 0.058514-0.175543 0.117029-0.292571 0.146285l-3.569372 1.960229c-0.146286 0.117029-0.292571 0.146286-0.438857 0.146286z m7.402057-4.681143c-0.234057 0-0.468114-0.087771-0.643657-0.292572-0.321829-0.351086-0.292571-0.906971 0.058514-1.2288 1.024-0.936229 1.930971-2.018743 2.720915-3.159771 0.263314-0.4096 0.8192-0.497371 1.2288-0.234057 0.4096 0.263314 0.497371 0.8192 0.234057 1.2288-0.848457 1.258057-1.872457 2.428343-2.984229 3.4816-0.2048 0.146286-0.4096 0.2048-0.6144 0.2048z m4.885943-7.197257c-0.117029 0-0.2048-0.029257-0.321828-0.058515-0.438857-0.175543-0.672914-0.672914-0.497372-1.141028 0.497371-1.316571 0.848457-2.6624 1.053257-4.037486 0.058514-0.468114 0.497371-0.8192 0.994743-0.760686 0.468114 0.058514 0.8192 0.497371 0.760686 0.994743-0.2048 1.521371-0.585143 3.013486-1.141029 4.447086-0.175543 0.351086-0.497371 0.555886-0.848457 0.555886z m1.258057-8.6016c-0.497371 0-0.877714-0.380343-0.877714-0.877715v-4.388571c0-0.497371 0.380343-0.877714 0.877714-0.877714s0.877714 0.380343 0.877715 0.877714v4.388571c0 0.468114-0.380343 0.877714-0.877715 0.877715z m0-8.777143c-0.497371 0-0.877714-0.380343-0.877714-0.877715v-4.388571c0-0.497371 0.380343-0.877714 0.877714-0.877714s0.877714 0.380343 0.877715 0.877714v4.388571c0 0.468114-0.380343 0.877714-0.877715 0.877715z m0-8.777143c-0.497371 0-0.877714-0.380343-0.877714-0.877714v-4.388572c0-0.497371 0.380343-0.877714 0.877714-0.877714s0.877714 0.380343 0.877715 0.877714v4.388572c0 0.468114-0.380343 0.877714-0.877715 0.877714z m0-8.777143c-0.497371 0-0.877714-0.380343-0.877714-0.877714v-0.438857h-2.194286c-0.497371 0-0.877714-0.380343-0.877714-0.877715s0.380343-0.877714 0.877714-0.877714h3.949715v2.194286c0 0.468114-0.380343 0.877714-0.877715 0.877714z m-7.460571-1.316571h-4.388572c-0.497371 0-0.877714-0.380343-0.877714-0.877715s0.380343-0.877714 0.877714-0.877714h4.388572c0.497371 0 0.877714 0.380343 0.877714 0.877714s-0.4096 0.877714-0.877714 0.877715z m-8.777143 0h-4.388571c-0.497371 0-0.877714-0.380343-0.877715-0.877715s0.380343-0.877714 0.877715-0.877714h4.388571c0.497371 0 0.877714 0.380343 0.877714 0.877714s-0.4096 0.877714-0.877714 0.877715z m-8.777143 0h-4.388571c-0.497371 0-0.877714-0.380343-0.877715-0.877715s0.380343-0.877714 0.877715-0.877714h4.388571c0.497371 0 0.877714 0.380343 0.877714 0.877714s-0.4096 0.877714-0.877714 0.877715z" fill="#FFFFFF" p-id="1590"></path><path d="M559.659886 372.882286c2.135771 5.588114-11.381029 15.506286-29.959315 22.557257s-35.2256 8.133486-37.361371 2.516114 11.0592-15.740343 29.666743-22.791314 35.518171-7.899429 37.653943-2.282057z" fill="#FE5244" p-id="1591"></path><path d="M570.046171 554.3936v3.101257c-0.965486-0.234057-1.989486-0.351086-3.013485-0.351086h-3.774172c-5.588114 0-10.357029-3.569371-12.170971-8.543085l10.708114-1.4336c4.359314-0.585143 8.250514 2.808686 8.250514 7.226514z" fill="#73325A" p-id="1592"></path><path d="M579.935086 570.046171v23.815315c0 5.558857-4.5056 10.064457-10.064457 10.064457h-11.205486c-2.779429 0-5.295543-1.111771-7.109486-2.954972-1.813943-1.813943-2.954971-4.330057-2.954971-7.109485h7.285028c2.399086 0 4.330057-1.930971 4.330057-4.330057v-6.231772c0-2.399086-1.930971-4.330057-4.330057-4.330057h-37.244343c-14.5408 0-26.331429-11.790629-26.331428-26.331429v-157.344914c1.755429-5.763657 13.7216-14.101943 29.666743-20.128914 10.883657-4.125257 21.211429-6.114743 28.320914-5.9392v175.016228c0 7.138743 5.792914 12.931657 12.931657 12.931658h3.774172c7.138743-0.029257 12.931657 5.7344 12.931657 12.873142z" fill="#A0505A" p-id="1593"></path><path d="M550.2976 369.195886v15.915885c-5.295543 3.569371-12.463543 7.226514-20.626286 10.298515-18.607543 7.050971-35.2256 8.133486-37.361371 2.516114v-2.6624c1.755429-5.763657 13.7216-14.101943 29.666743-20.128914 10.912914-4.125257 21.211429-6.114743 28.320914-5.9392z" fill="#73325A" p-id="1594"></path><path d="M501.642971 250.6752l-11.000685 28.350171-56.700343 10.152229 14.804114-38.5024z" fill="#A0505A" p-id="1595"></path><path d="M501.642971 250.6752l-5.9392 15.330743-56.232228 8.777143 9.274514-24.107886z" fill="#73325A" p-id="1596"></path><path d="M534.879086 192.980114c0 3.832686-6.641371 8.074971-14.306743 11.644343-10.4448 4.885943-22.762057 8.6016-22.762057 8.6016l-8.309029 15.652572c11.293257 5.997714 15.711086 16.764343 17.466514 24.283428 1.111771 4.798171 1.111771 8.221257 1.111772 8.221257h-79.637943s-20.918857-67.759543 29.4912-83.968c30.837029-9.918171 76.946286 6.465829 76.946286 15.5648z" fill="#FFFFFF" p-id="1597"></path><path d="M450.56 167.263086m-19.807086 0a19.807086 19.807086 0 1 0 39.614172 0 19.807086 19.807086 0 1 0-39.614172 0Z" fill="#FFFFFF" p-id="1598"></path><path d="M506.938514 253.162057c-1.6384-7.109486-5.7344-17.232457-15.828114-23.3472h-2.603886c-2.399086 0-4.593371-0.965486-6.173257-2.545371-1.579886-1.579886-2.545371-3.774171-2.545371-6.173257 0-4.827429 3.8912-8.718629 8.718628-8.718629l11.029943 0.234057h0.292572c0.2048-0.058514 0.4096-0.146286 0.643657-0.2048 2.984229-0.643657 12.434286-2.925714 20.2752-6.846171l0.906971 5.412571 2.925714 17.349486c1.989486 11.907657-6.173257 22.879086-17.642057 24.839314z" fill="#A0505A" p-id="1599"></path><path d="M521.6256 210.944c-9.596343 3.8912-22.1184 1.6384-22.1184 1.6384s11.790629-2.340571 21.211429-7.050971l0.906971 5.412571z" fill="#73325A" p-id="1600"></path><path d="M349.505829 593.861486h206.292114c2.4576 0 4.447086-1.989486 4.447086-4.447086V583.387429c0-2.4576-1.989486-4.447086-4.447086-4.447086h-206.292114c-2.4576 0-4.447086 1.989486-4.447086 4.447086v6.026971c0.029257 2.4576 2.018743 4.447086 4.447086 4.447086z" fill="#FFFFFF" p-id="1601"></path></svg>