<svg t="1646996626492" class="icon" viewBox="0 0 1024 1024" version="1.1" xmlns="http://www.w3.org/2000/svg" p-id="5988" width="200" height="200"><path d="M911.482144 1023.95103v-57.168654c0-23.305745-17.200791-86.632405-68.203278-106.110311-75.895683-38.315118-172.089524-35.891092-226.262832-105.816489-22.069247-7.500606-19.06574 7.876044-42.371485 7.876044l-126.987949 0.008162c-23.305745 0-20.314481-15.384812-42.379647-7.884206-70.12944 89.795065-139.720207 61.922846-217.146209 101.527514C118.270641 892.914876 110.823086 943.476631 110.823086 966.786457v57.164573" fill="#B3F0FF" p-id="5989"></path><path d="M917.603421 1023.95103h-12.242555v-57.168654c0-20.253268-15.229739-81.670089-64.265256-100.393037l-0.5754-0.253013c-26.464324-13.360709-56.107632-21.857043-84.771536-30.079959-52.247147-14.980807-106.249059-30.463559-142.393164-75.944654-8.059682-2.448511-10.72856-0.820251-15.331761 1.971052-4.705222 2.856596-11.144806 6.770133-23.3792 6.770133l-126.987949 0.008162c-12.234394 0-18.68214-3.913537-23.387362-6.774214-4.607282-2.799464-7.272078-4.419563-15.335841-1.975133-45.962635 58.001148-93.153606 67.729899-138.802015 77.132182-25.635911 5.284703-52.149206 10.748964-79.213416 24.587132C129.786805 893.79634 116.944364 936.555506 116.944364 966.786457v57.164573H104.701808v-57.164573c0-27.517184 10.471466-79.160365 80.592744-115.826819 28.590448-14.625773 55.928075-20.257349 82.363833-25.705286 45.889179-9.455334 89.231907-18.388319 132.795001-74.165402l1.122235-1.444622 1.730281-0.587642c14.805331-5.035771 21.457119-0.995728 27.317222 2.562775 4.231843 2.566856 8.226997 4.994963 17.033476 4.994962l126.987949-0.008161c8.806478 0 12.801632-2.424026 17.025314-4.990882 5.860103-3.562584 12.499649-7.602627 27.313141-2.558694l1.742524 0.591723 1.126315 1.452783c33.687432 43.481477 84.000255 57.907288 137.267615 73.181917 29.116878 8.349423 59.217242 16.980425 86.640566 30.781866 54.80176 21.155136 71.839316 89.252311 71.839317 111.71332v57.172735z" fill="#3F3F3F" p-id="5990"></path><path d="M256.109575 484.038003l-16.494804-9.536951c-9.071734-5.243895-18.245489-28.521074-20.387936-51.728878l-4.925588-53.328573c-2.138366-23.211885 6.382452-39.812791 18.955557-36.899062l22.852771 5.296945" fill="#FFEAD6" p-id="5991"></path><path d="M252.024642 491.101958l-16.494803-9.536951c-13.087292-7.561819-22.354907-35.548301-24.432061-58.046037l-4.925588-53.324492c-1.673149-18.163872 2.513805-33.528279 11.201939-41.106421 5.023529-4.382835 11.316202-5.982529 17.72722-4.493018l22.852771 5.296946-3.68501 15.898999-22.85277-5.296946c-1.077345-0.248932-2.056749-0.195881-3.309571 0.893707-3.652362 3.187145-6.986418 13.091373-5.676465 27.30498l4.925588 53.324491c2.138366 23.195562 11.108079 42.387808 16.343812 45.41172l16.494803 9.536951-8.169865 14.136071z" fill="#6E6E96" p-id="5992"></path><path d="M256.109575 484.038003l-16.494804-9.536951c-9.071734-5.243895-18.245489-28.521074-20.387936-51.728878l-4.925588-53.328573c-2.138366-23.211885 6.382452-39.812791 18.955557-36.899062l22.852771 5.296945" fill="#FFEAD6" p-id="5993"></path><path d="M252.024642 491.101958l-16.494803-9.536951c-13.087292-7.561819-22.354907-35.548301-24.432061-58.046037l-4.925588-53.324492c-1.673149-18.163872 2.513805-33.528279 11.201939-41.106421 5.023529-4.382835 11.316202-5.982529 17.72722-4.493018l22.852771 5.296946-3.68501 15.898999-22.85277-5.296946c-1.077345-0.248932-2.056749-0.195881-3.309571 0.893707-3.652362 3.187145-6.986418 13.091373-5.676465 27.30498l4.925588 53.324491c2.138366 23.195562 11.108079 42.387808 16.343812 45.41172l16.494803 9.536951-8.169865 14.136071z" fill="#6E6E96" p-id="5994"></path><path d="M617.016034 754.867819c0 46.61149-38.155965 84.755213-84.763375 84.755212H490.032166c-46.61149 0-84.755213-38.143723-84.755213-84.755212v-154.676529c0-46.623733 38.139642-84.755213 84.755213-84.755213h42.228655c46.61149 0 84.759294 38.13148 84.759294 84.755213v154.676529h-0.004081z" fill="#FFEAD6" p-id="5995"></path><path d="M532.252659 847.780654H490.032166c-51.235095 0-92.916916-41.681821-92.916917-92.916916v-154.676529c0-51.235095 41.681821-92.916916 92.916917-92.916916h42.228655c51.235095 0 92.920997 41.681821 92.920997 92.916916v154.676529c-0.004081 51.235095-41.689983 92.916916-92.929159 92.916916z m-42.220493-324.182873c-42.232736 0-76.593509 34.360773-76.593509 76.593509v154.676529c0 42.232736 34.360773 76.593509 76.593509 76.593509h42.220493c42.240898 0 76.601671-34.360773 76.601671-76.593509v-154.676529c0-42.232736-34.360773-76.593509-76.59759-76.593509H490.032166z" fill="#6E6E96" p-id="5996"></path><path d="M617.016034 774.264108c0 46.61149-38.155965 80.564178-84.763375 80.564177H490.032166c-46.61149 0-84.755213-33.952688-84.755213-80.564177v-174.08098c0-46.619652 38.139642-84.763374 84.755213-84.763374h42.228655c46.61149 0 84.759294 38.143723 84.759294 84.763374v174.08098h-0.004081z" fill="#FFEAD6" p-id="5997"></path><path d="M532.252659 862.99407H490.032166c-52.104317 0-92.916916-38.976216-92.916917-88.725882v-174.080979c0-51.239176 41.681821-92.925078 92.916917-92.925078h42.228655c51.235095 0 92.920997 41.685902 92.920997 92.925078v174.080979c-0.004081 49.749665-40.820761 88.725882-92.929159 88.725882z m-42.220493-339.408532c-42.232736 0-76.593509 34.364854-76.593509 76.601671v174.080979c0 41.273736 32.928394 72.402474 76.593509 72.402475h42.220493c43.669196 0 76.601671-31.128738 76.601671-72.402475v-174.080979c0-42.236817-34.360773-76.601671-76.59759-76.601671H490.032166z" fill="#6E6E96" p-id="5998"></path><path d="M617.016034 600.183128c0-0.81617-0.102021-1.616017-0.126507-2.432187H466.073485l-60.796532 36.878658v120.225977c0 17.176306 5.207167 33.181407 14.08302 46.578843 12.009947-13.474973 39.576102-22.505898 101.290825-22.505898 49.280367 0 72.520819 7.659759 83.249378 20.898043 8.247402-13.062807 13.111777-28.476184 13.111777-44.975069l0.004081-154.668367z" fill="#D59758" opacity=".15" p-id="5999"></path><path d="M766.98734 484.038003s7.410827-4.293056 16.490723-9.536951c9.079895-5.243895 18.25365-28.521074 20.387936-51.728878l4.925588-53.328573c2.134286-23.211885-6.374291-39.812791-18.959638-36.899062l-22.84869 5.296945" fill="#FFEAD6" p-id="6000"></path><path d="M771.076354 491.101958l-8.178027-14.12791 16.498884-9.541031c5.235733-3.023911 14.205445-22.216158 16.343812-45.407639l4.925588-53.332653c1.305873-14.213607-2.024103-24.117835-5.676465-27.300899-1.252822-1.089587-2.228145-1.142639-3.317733-0.893707l-22.848689 5.296946-3.680929-15.898999 22.844609-5.296946c6.411018-1.489511 12.707773 0.106102 17.739463 4.497099 8.679972 7.574061 12.866926 22.942549 11.193777 41.10234l-4.925588 53.332653c-2.068992 22.493656-11.336607 50.484219-24.432061 58.046037l-16.486641 9.524709z" fill="#6E6E96" p-id="6001"></path><path d="M766.98734 484.038003s7.410827-4.293056 16.490723-9.536951c9.079895-5.243895 18.25365-28.521074 20.387936-51.728878l4.925588-53.328573c2.134286-23.211885-6.374291-39.812791-18.959638-36.899062l-22.84869 5.296945" fill="#FFEAD6" p-id="6002"></path><path d="M771.076354 491.101958l-8.178027-14.12791 16.498884-9.541031c5.235733-3.023911 14.205445-22.216158 16.343812-45.407639l4.925588-53.332653c1.305873-14.213607-2.024103-24.117835-5.676465-27.300899-1.252822-1.089587-2.228145-1.142639-3.317733-0.893707l-22.848689 5.296946-3.680929-15.898999 22.844609-5.296946c6.411018-1.489511 12.707773 0.106102 17.739463 4.497099 8.679972 7.574061 12.866926 22.942549 11.193777 41.10234l-4.925588 53.332653c-2.068992 22.493656-11.336607 50.484219-24.432061 58.046037l-16.486641 9.524709z" fill="#6E6E96" p-id="6003"></path><path d="M766.179332 564.247147c0 26.464324-17.666008 60.637378-39.265957 75.948734l-136.418798 96.708028c-21.591787 15.311356-57.307403 19.363642-79.352164 19.363642-22.052924 0-57.760377-4.052286-79.352165-19.363642l-136.422878-96.708028c-21.595868-15.311356-39.257795-49.48441-39.257795-75.948734V258.497481c0-26.468405 21.653-48.117324 48.121405-48.117324H718.053845c26.468405 0 48.125486 21.648919 48.125487 48.117324v305.749666z" fill="#FFEAD6" p-id="6004"></path><path d="M511.142413 764.429255c-12.817956 0-56.76873-1.505834-84.073711-20.865396l-136.422878-96.708028c-23.942358-16.976344-42.697953-53.263279-42.697953-82.608684V258.497481c0-31.030798 25.248231-56.279028 56.283109-56.279028H718.053845c31.034879 0 56.28719 25.248231 56.28719 56.279028v305.749666c0 29.345406-18.759676 65.632341-42.710195 82.608684l-136.418798 96.708028c-27.300899 19.359561-71.251674 20.865396-84.069629 20.865396zM304.23098 218.541861c-22.032519 0-39.959702 17.923101-39.959702 39.95562v305.749666c0 23.795447 16.405025 55.524071 35.817637 69.288784l136.422879 96.708027c18.571957 13.17299 50.72907 17.861889 74.6347 17.861889 23.901549 0 56.062743-4.688899 74.630619-17.861889l136.422878-96.708027c19.416693-13.764713 35.821718-45.493337 35.821718-69.288784V258.497481c0-22.028438-17.931263-39.955621-39.963783-39.95562H304.23098z" fill="#6E6E96" p-id="6005"></path><path d="M726.913375 590.009564l-136.418798 76.303769c-21.591787 15.311356-57.307403 19.359561-79.352164 19.359561-22.048843 0-57.760377-4.048205-79.356246-19.359561L295.36737 590.009564c-39.257795-25.762418-39.257795-112.676401-39.257795-139.144806v113.382389c0 26.464324 17.661927 60.637378 39.257795 75.948734l136.418797 96.708028c21.595868 15.311356 57.303322 19.363642 79.356246 19.363642 22.052924 0 57.760377-4.052286 79.352164-19.363642l136.418798-96.708028c21.599949-15.311356 39.257795-49.48441 39.257795-75.948734v-94.553338c0 26.460244 0 94.553338-39.257795 120.315755zM218.10052 410.574507s7.651597 40.290251 38.004974 40.290251v33.173245c0.004081 0-38.004974-11.993624-38.004974-73.463496zM805.339186 410.574507s-7.659759 40.290251-38.009054 40.290251v33.173245s38.009054-11.993624 38.009054-73.463496z" fill="#D59758" opacity=".15" p-id="6006"></path><path d="M911.482144 1023.95103v-57.168654c0-23.305745-17.200791-86.632405-68.203278-106.110311-75.895683-38.315118-172.089524-35.891092-226.262832-105.816489 13.764713 59.83345-94.402346 252.963846-109.415801 260.566473-16.017344-4.566473-102.327361-260.566473-102.327361-260.566473-38.906842 38.89868-139.720207 61.922846-217.146209 101.527514C118.270641 892.914876 110.823086 943.476631 110.823086 966.786457v57.164573" fill="#F0F0FF" p-id="6007"></path><path d="M919.643847 1023.95103h-16.323407v-57.168654c0-19.082063-15.499075-80.364216-62.955302-98.487279a8.447363 8.447363 0 0 1-0.7672-0.338711c-26.292929-13.275011-55.842377-21.74686-84.416502-29.937129-46.158516-13.234203-93.675955-26.860167-129.318115-61.135242-3.59115 37.152075-25.493082 89.848116-45.407639 131.370783-21.089843 43.97526-56.866671 108.220111-69.17452 114.447491a8.108653 8.108653 0 0 1-5.925397 0.567239c-5.913154-1.685392-14.013645-3.995154-62.600268-137.043168-17.457884-47.811261-33.981254-95.773513-41.290059-117.181662-26.448001 20.714404-68.962316 36.964356-113.668049 54.050883-32.438692 12.397628-65.979213 25.219665-95.961232 40.555506C131.635431 895.134859 118.98479 937.118664 118.98479 966.786457v57.164573h-16.323408v-57.164573c0-27.97832 10.614296-80.470318 81.682331-117.634637 30.830836-15.768412 64.787604-28.749601 97.630301-41.302301 48.913091-18.694382 95.112415-36.352229 117.524453-58.760187a8.153542 8.153542 0 0 1 13.503539 3.166741c35.935982 106.575528 79.119556 224.006121 94.957342 251.090736 10.687751-14.054454 34.928011-54.116177 59.033603-104.779953 32.006121-67.248358 47.337882-118.960913 42.065422-141.878977a8.161704 8.161704 0 0 1 14.409488-6.827266c33.279347 42.950966 83.277944 57.286999 136.218835 72.467768 29.169929 8.365746 59.331505 17.013071 86.901741 30.871645 54.654849 21.151055 73.05541 86.8038 73.05541 113.58235v57.168654z" fill="#6E6E96" p-id="6008"></path><path d="M296.714051 810.955047s-22.795639 62.290123 6.476312 62.290123h55.76076v44.615954l148.64911 97.573168-122.160301-203.516164c-0.004081-0.012243-77.087292-15.862271-88.725881-0.963081z" opacity=".1" p-id="6009"></path><path d="M843.278866 859.158069c-30.022827-15.160365-63.245042-23.946439-95.773513-33.365045-0.008162 0-0.016323-0.008162-0.036727-0.008161-0.146911-0.053051-0.322387-0.089779-0.481541-0.14283-49.488491-14.32379-97.348722-30.194223-129.987375-72.300453-2.991264 1.954728-5.978448 3.770707-8.945227 5.525473 23.277179 44.799592 44.779188 58.747944 77.793279 73.932794l-29.296435 17.429318-148.963336 165.188804 173.354587-100.372633v-41.82057h85.428554l-0.085698-0.542754c33.00593 26.566346 44.815915 73.271695 44.815915 92.578206v57.168654h100.364471v-57.168654c0.016323-23.305745-17.184467-86.620162-68.186954-106.102149z" fill="#3F3F3F" opacity=".1" p-id="6010"></path><path d="M505.608778 641.852707c-34.421986 0-55.883186-16.23771-57.213544-17.262004a6.121278 6.121278 0 0 1 7.508768-9.671619c1.860868 1.424217 43.844673 32.626411 105.481859-0.550915a6.121278 6.121278 0 0 1 5.802971 10.773449c-23.244532 12.515973-44.089524 16.711088-61.580054 16.711089z" fill="#3F3F3F" p-id="6011"></path><path d="M405.276953 754.867819l102.327361 260.566473-127.045081-119.181279v-45.995282H317.828378c0-0.016323-16.727412-64.269336 87.448575-95.389912z" fill="#F0F0FF" p-id="6012"></path><path d="M507.604314 1023.591915c-2.020022 0-4.027801-0.750877-5.586686-2.207741L374.976628 902.202895a8.169865 8.169865 0 0 1-2.579098-5.953963v-37.833578H317.828378a8.169865 8.169865 0 0 1-7.920933-6.190652c-0.734553-2.942294-16.735574-72.386151 93.03118-105.179876a8.14538 8.14538 0 0 1 9.936874 4.835809l101.931519 259.550341a8.161704 8.161704 0 0 1-7.117006 12.160939h-0.085698z m-118.883377-130.877001l98.038386 91.97424-86.297775-219.753874c-70.496716 23.395524-76.1691 62.114646-75.491679 77.156667h55.585284a8.161704 8.161704 0 0 1 8.161703 8.161703v42.461264z" fill="#6E6E96" p-id="6013"></path><path d="M507.600233 1015.422049l115.35344-260.566473c86.8038 0 96.33667 95.381751 96.336671 95.381751h-62.726775v45.995282l-148.963336 119.18944" fill="#F0F0FF" p-id="6014"></path><path d="M507.600233 1023.583753a8.161704 8.161704 0 0 1-7.463878-11.467194l115.35344-260.566473a8.161704 8.161704 0 0 1 7.463878-4.856214c93.112797 0 104.355544 101.707071 104.461647 102.731366a8.157623 8.157623 0 0 1-8.120896 8.973793h-54.56507v37.833578a8.161704 8.161704 0 0 1-3.06472 6.37429l-148.963336 119.189441a8.157623 8.157623 0 0 1-5.101065 1.787413z m120.609577-260.435886l-99.621756 225.030415 119.813812-95.863291v-42.073583a8.161704 8.161704 0 0 1 8.161703-8.161704h53.059236c-1.852707-8.663649-5.713193-22.436524-13.328062-36.001275-15.152203-27.01932-38.041701-41.441051-68.084933-42.930562z" fill="#6E6E96" p-id="6015"></path><path d="M622.953673 754.867819c60.470063 1.513996 58.009309 57.046228 58.00931 57.046228h-53.210228v70.85175L507.604314 1015.430211l148.967417-119.181279v-45.995282h62.726774c-0.004081-0.012243-9.545113-95.385832-96.344832-95.385831z" opacity=".1" p-id="6016"></path><path d="M413.181563 754.867819c-60.478225 1.513996-58.009309 57.046228-58.009309 57.046228h53.210228v70.85175l91.362111 132.664414-120.172926-119.181279v-45.995282H316.840812c0-0.012243 9.536951-95.385832 96.340751-95.385831z" opacity=".1" p-id="6017"></path><path d="M448.150383 412.035452H358.579765a8.161704 8.161704 0 0 1 0-16.323407h89.570618a8.161704 8.161704 0 0 1 0 16.323407zM661.73809 412.035452h-89.566537a8.161704 8.161704 0 0 1 0-16.323407H661.73809a8.161704 8.161704 0 0 1 0 16.323407z" fill="#6E6E96" p-id="6018"></path><path d="M745.775072 87.056813c22.061085 49.827201 28.565963 139.30396 28.565963 207.621501-48.668239 23.252694-184.646305 31.214436-263.063954 31.434802-214.093732 0-263.063955-31.434802-263.063955-31.434802-2.721928-70.733406 5.439776-144.188739 28.565963-207.621501 0 0 29.622904-78.895109 234.497992-78.895109 204.871007 0 234.497991 78.895109 234.497991 78.895109z" fill="#F0F0FF" p-id="6019"></path><path d="M511.301566 334.27482h-0.024485c-214.028438 0-265.39004-31.389913-267.471275-32.728432a8.161704 8.161704 0 0 1-3.746222-6.553848c-2.983103-77.544347 7.059874-150.412039 29.055665-210.73111C270.429284 80.751897 303.141392 0 511.277081 0c204.181343 0 239.541924 77.711662 242.031244 83.910476 26.350061 59.682459 29.194414 167.257795 29.194414 210.767838 0 3.146337-1.803737 6.011095-4.644009 7.365938-52.426704 25.048269-197.288784 32.034687-266.557164 32.230568zM256.199353 289.552764c14.60945 6.41918 77.613722 28.394567 255.053243 28.398648 76.520054-0.216285 204.903654-8.04744 254.910412-28.578205-0.236689-45.395396-3.693171-144.441752-27.855895-199.010904-0.065294-0.14283-0.118345-0.28566-0.175476-0.43257-0.261175-0.661098-31.744947-73.606325-226.854556-73.606325-195.11369 0-226.593381 72.945227-226.887203 73.683861-20.763374 56.952369-30.504368 125.906523-28.190525 199.545495z" fill="#6E6E96" p-id="6020"></path><path d="M569.23742 528.425429c50.87598 28.818976 145.547663-15.874514 145.547663 39.674042 0 95.153223-91.835491 189.07811-210.845374 189.07811-98.670918 0-194.521966-87.060894-194.521966-189.07811 0-55.405726 96.255053-10.606134 146.910667-39.449595 30.394185-17.306893 16.327488-42.167442 55.773003-42.167443 39.278199-0.004081 26.819359 24.774852 57.136007 41.942996z" fill="#B3F0FF" p-id="6021"></path><path d="M503.939709 765.339285c-106.077664 0-202.68367-94.010585-202.68367-197.239814 0-37.931518 38.870114-37.931518 55.466939-37.931518 6.774214 0 13.764713 0.253013 21.163297 0.53051 7.516929 0.273417 15.295033 0.563158 22.946631 0.563158h0.00408c16.021424 0 36.348148-1.105911 51.451381-9.704266 10.793853-6.145763 14.75228-13.017917 18.947395-20.298157 6.492635-11.275394 13.209718-22.938468 40.865651-22.938469 27.54575 0 34.740292 11.614104 41.694063 22.844609 4.288975 6.917044 8.7167 14.074858 19.465664 20.159409 15.217497 8.618759 35.511573 9.72467 51.492189 9.72467 7.480201 0 15.062424-0.273417 22.395715-0.538673 7.210865-0.261175 14.017726-0.506026 20.624625-0.506026 16.511127 0 55.177198 0 55.177199 38.094753-0.004081 105.069693-102.343684 197.239814-219.011159 197.239814z m-147.216731-218.847925c-32.903909 0-39.143531 7.590384-39.143532 21.608111 0 94.683925 88.827903 180.916406 186.360263 180.916406 107.971179 0 202.68367-84.543008 202.68367-180.916406 0-14.442135-6.011095-21.771345-38.85379-21.771345-6.313078 0-12.977109 0.24077-20.028821 0.493783-7.480201 0.269336-15.217497 0.550915-22.99152 0.550915-17.980233 0-41.0044-1.346681-59.535548-11.842632-14.380922-8.14538-20.436906-17.919021-25.297201-25.766499-6.03558-9.745074-9.361474-15.115475-27.806924-15.115475-18.229165 0-21.073519 4.929669-26.72958 14.760441-4.619524 8.018874-10.369445 18.000638-25.011541 26.341899-18.433208 10.49187-41.494102 11.838551-59.531468 11.838551h-0.00408c-7.95358 0-15.878595-0.28974-23.546516-0.5754-7.243512-0.269336-14.087101-0.522349-20.563412-0.522349z" fill="#6E6E96" p-id="6022"></path><path d="M261.435086 489.804247l60.233374 51.794172-10.646943 12.381304-60.233373-51.794172zM766.954693 479.81024l8.879934 8.422879-60.50271 63.76331-8.879933-8.422878z" fill="#6E6E96" p-id="6023"></path><path d="M537.925044 493.79532c-3.636039-3.16266-8.414717-5.521393-15.678633-6.623223 0.253013 0.150992 0.485621 0.301983 0.750876 0.448894 4.639929 2.632149 9.659376 4.635848 14.927757 6.174329z m130.211821 44.383345c58.772429 33.997577-36.335905 105.734872-85.632596 139.605943-17.310974 11.895683-54.858892-14.340113-75.83447-7.667921-20.967417 6.680355-25.350252 46.252375-48.966142 46.252375-36.519543 0-72.639163-11.948734-103.669961-32.14487 37.184722 44.016068 93.059746 72.953389 149.918256 72.953389 119.005802 0 210.841293-93.924887 210.841293-189.07811-0.004081-25.558375-20.061468-29.875917-46.65638-29.920806z" opacity=".1" p-id="6024"></path><path d="M456.336572 553.130906c30.394185-17.298731 16.327488-42.167442 55.773003-42.167442 39.270038 0 26.811197 24.770771 57.131926 41.947076 48.031627 27.202959 135.035389-11.055028 144.637633 31.296053 0.5754-5.358159 0.91003-10.73264 0.91003-16.107122 0-55.548556-94.671683-10.850985-145.547663-39.674042-30.320729-17.172225-17.861889-41.947076-57.131926-41.947077-39.445514 0-25.378818 24.86055-55.773003 42.167443-50.655614 28.83938-146.910668-15.956131-146.910668 39.453676 0 5.513231 0.33463 10.96933 0.877383 16.38462 9.479819-42.616336 98.124083-4.068609 146.033285-31.353185z" fill="#FFFFFF" opacity=".11" p-id="6025"></path><path d="M745.775072 87.056813S716.148088 8.161704 511.277081 8.161704c-15.625582 0-30.218708 0.465217-43.869158 1.309953 165.343876 10.271504 190.628834 77.585156 190.628834 77.585156 8.949308 20.21654 15.348084 50.34547 19.779889 83.584008 1.722119 12.911815-35.609513 26.288848-34.434228 39.735255 0.869221 10.002168 40.351463 20.041064 40.935025 29.953453 1.620098 27.031563 2.130205 16.755978 2.130205 38.588535-41.559396 19.853344-220.69247 44.293566-385.664988 31.736785 15.605178 0.399923 192.665179 15.454186 210.494421 15.454186 78.41765-0.220366 214.395715-8.182108 263.059874-31.434802 0.004081-68.30938-6.496716-157.790219-28.561883-207.61742z" fill="#3F3F3F" opacity=".1" p-id="6026"></path><path d="M580.121052 154.570427H529.110403v-51.010649h-38.768092v51.010649H439.331662v38.768092h51.010649v51.010649h38.768092v-51.010649h51.010649z" fill="#FF8F8F" p-id="6027"></path><path d="M529.110403 250.470446h-38.768092a6.121278 6.121278 0 0 1-6.121278-6.121278v-44.889371H439.331662a6.121278 6.121278 0 0 1-6.121278-6.121278v-38.768092a6.121278 6.121278 0 0 1 6.121278-6.121278h44.889371v-44.889371a6.121278 6.121278 0 0 1 6.121278-6.121278h38.768092a6.121278 6.121278 0 0 1 6.121278 6.121278v44.889371h44.889371a6.121278 6.121278 0 0 1 6.121278 6.121278v38.768092a6.121278 6.121278 0 0 1-6.121278 6.121278h-44.889371v44.889371a6.121278 6.121278 0 0 1-6.121278 6.121278z m-32.646815-12.242556h26.525538v-44.889371a6.121278 6.121278 0 0 1 6.121277-6.121277h44.889371v-26.525538h-44.889371a6.121278 6.121278 0 0 1-6.121277-6.121277v-44.889371H496.463588v44.889371a6.121278 6.121278 0 0 1-6.121277 6.121277h-44.889371v26.525538h44.889371a6.121278 6.121278 0 0 1 6.121277 6.121277v44.889371z" fill="#6E6E96" p-id="6028"></path></svg>